{
  "accessors": [
    {
      "bufferView": 2,
      "componentType": 5126,
      "count": 532,
      "max": [
        0.9390701651573181,
        0.9280931353569031,
        0.9390701651573181
      ],
      "min": [
        -0.9390701651573181,
        -0.4716130495071411,
        -0.9390701651573181
      ],
      "type": "VEC3"
    },
    {
      "bufferView": 2,
      "byteOffset": 6384,
      "componentType": 5126,
      "count": 532,
      "type": "VEC3"
    },
    {
      "bufferView": 1,
      "componentType": 5126,
      "count": 532,
      "type": "VEC2"
    },
    {
      "bufferView": 0,
      "componentType": 5125,
      "count": 2592,
      "type": "SCALAR"
    },
    {
      "bufferView": 2,
      "byteOffset": 12768,
      "componentType": 5126,
      "count": 276,
      "max": [
        1.1375173330307007,
        -0.2200348675251007,
        1.1375173330307007
      ],
      "min": [
        -1.1375173330307007,
        -1.1427533626556396,
        -1.1375173330307007
      ],
      "type": "VEC3"
    },
    {
      "bufferView": 2,
      "byteOffset": 16080,
      "componentType": 5126,
      "count": 276,
      "type": "VEC3"
    },
    {
      "bufferView": 1,
      "byteOffset": 4256,
      "componentType": 5126,
      "count": 276,
      "type": "VEC2"
    },
    {
      "bufferView": 0,
      "byteOffset": 10368,
      "componentType": 5125,
      "count": 1308,
      "type": "SCALAR"
    },
    {
      "bufferView": 2,
      "byteOffset": 19392,
      "componentType": 5126,
      "count": 32,
      "max": [
        0.76380854845047,
        3.123457670211792,
        0.76380854845047
      ],
      "min": [
        -0.76380854845047,
        3.1080267429351807,
        -0.76380854845047
      ],
      "type": "VEC3"
    },
    {
      "bufferView": 2,
      "byteOffset": 19776,
      "componentType": 5126,
      "count": 32,
      "type": "VEC3"
    },
    {
      "bufferView": 1,
      "byteOffset": 6464,
      "componentType": 5126,
      "count": 32,
      "type": "VEC2"
    },
    {
      "bufferView": 0,
      "byteOffset": 15600,
      "componentType": 5125,
      "count": 90,
      "type": "SCALAR"
    },
    {
      "bufferView": 2,
      "byteOffset": 20160,
      "componentType": 5126,
      "count": 247,
      "max": [
        1.0609005689620972,
        1.0323563814163208,
        1.0609005689620972
      ],
      "min": [
        -1.0609005689620972,
        -0.4894419014453888,
        -1.0609005689620972
      ],
      "type": "VEC3"
    },
    {
      "bufferView": 2,
      "byteOffset": 23124,
      "componentType": 5126,
      "count": 247,
      "type": "VEC3"
    },
    {
      "bufferView": 1,
      "byteOffset": 6720,
      "componentType": 5126,
      "count": 247,
      "type": "VEC2"
    },
    {
      "bufferView": 0,
      "byteOffset": 15960,
      "componentType": 5125,
      "count": 864,
      "type": "SCALAR"
    },
    {
      "bufferView": 2,
      "byteOffset": 26088,
      "componentType": 5126,
      "count": 494,
      "max": [
        0.9999997019767761,
        1.0,
        0.9999993443489075
      ],
      "min": [
        -0.9999990463256836,
        -1.5736218690872192,
        -1.0
      ],
      "type": "VEC3"
    },
    {
      "bufferView": 2,
      "byteOffset": 32016,
      "componentType": 5126,
      "count": 494,
      "type": "VEC3"
    },
    {
      "bufferView": 1,
      "byteOffset": 8696,
      "componentType": 5126,
      "count": 494,
      "type": "VEC2"
    },
    {
      "bufferView": 0,
      "byteOffset": 19416,
      "componentType": 5125,
      "count": 2592,
      "type": "SCALAR"
    },
    {
      "bufferView": 2,
      "byteOffset": 37944,
      "componentType": 5126,
      "count": 66,
      "max": [
        0.3826833963394165,
        -1.5736218690872192,
        0.38268333673477173
      ],
      "min": [
        -0.38268324732780457,
        -2.6564323902130127,
        -0.3826832175254822
      ],
      "type": "VEC3"
    },
    {
      "bufferView": 2,
      "byteOffset": 38736,
      "componentType": 5126,
      "count": 66,
      "type": "VEC3"
    },
    {
      "bufferView": 1,
      "byteOffset": 12648,
      "componentType": 5126,
      "count": 66,
      "type": "VEC2"
    },
    {
      "bufferView": 0,
      "byteOffset": 29784,
      "componentType": 5125,
      "count": 192,
      "type": "SCALAR"
    },
    {
      "bufferView": 2,
      "byteOffset": 39528,
      "componentType": 5126,
      "count": 814,
      "max": [
        2.128056049346924,
        0.9999996423721313,
        0.9999999403953552
      ],
      "min": [
        -13.038980484008789,
        -1.2774581909179688,
        -1.0
      ],
      "type": "VEC3"
    },
    {
      "bufferView": 2,
      "byteOffset": 49296,
      "componentType": 5126,
      "count": 814,
      "type": "VEC3"
    },
    {
      "bufferView": 1,
      "byteOffset": 13176,
      "componentType": 5126,
      "count": 814,
      "type": "VEC2"
    },
    {
      "bufferView": 0,
      "byteOffset": 30552,
      "componentType": 5125,
      "count": 4356,
      "type": "SCALAR"
    },
    {
      "bufferView": 2,
      "byteOffset": 59064,
      "componentType": 5126,
      "count": 3135,
      "max": [
        3.3812637329101563,
        1.259854793548584,
        1.5140666961669922
      ],
      "min": [
        -1.5140666961669922,
        -1.312857985496521,
        -1.5140666961669922
      ],
      "type": "VEC3"
    },
    {
      "bufferView": 2,
      "byteOffset": 96684,
      "componentType": 5126,
      "count": 3135,
      "type": "VEC3"
    },
    {
      "bufferView": 1,
      "byteOffset": 19688,
      "componentType": 5126,
      "count": 3135,
      "type": "VEC2"
    },
    {
      "bufferView": 0,
      "byteOffset": 47976,
      "componentType": 5125,
      "count": 17418,
      "type": "SCALAR"
    },
    {
      "bufferView": 2,
      "byteOffset": 134304,
      "componentType": 5126,
      "count": 880,
      "max": [
        2.5236659049987793,
        0.4363862872123718,
        0.407382607460022
      ],
      "min": [
        1.9929646253585815,
        -0.25660425424575806,
        -0.4073825478553772
      ],
      "type": "VEC3"
    },
    {
      "bufferView": 2,
      "byteOffset": 144864,
      "componentType": 5126,
      "count": 880,
      "type": "VEC3"
    },
    {
      "bufferView": 1,
      "byteOffset": 44768,
      "componentType": 5126,
      "count": 880,
      "type": "VEC2"
    },
    {
      "bufferView": 0,
      "byteOffset": 117648,
      "componentType": 5125,
      "count": 4746,
      "type": "SCALAR"
    },
    {
      "bufferView": 2,
      "byteOffset": 155424,
      "componentType": 5126,
      "count": 880,
      "max": [
        2.5236659049987793,
        0.4363862872123718,
        0.407382607460022
      ],
      "min": [
        1.9929646253585815,
        -0.25660425424575806,
        -0.4073825478553772
      ],
      "type": "VEC3"
    },
    {
      "bufferView": 2,
      "byteOffset": 165984,
      "componentType": 5126,
      "count": 880,
      "type": "VEC3"
    },
    {
      "bufferView": 1,
      "byteOffset": 51808,
      "componentType": 5126,
      "count": 880,
      "type": "VEC2"
    },
    {
      "bufferView": 0,
      "byteOffset": 136632,
      "componentType": 5125,
      "count": 4746,
      "type": "SCALAR"
    },
    {
      "bufferView": 2,
      "byteOffset": 176544,
      "componentType": 5126,
      "count": 497,
      "max": [
        0.9999997019767761,
        1.0,
        0.9999993443489075
      ],
      "min": [
        -0.9999990463256836,
        -1.0,
        -1.0
      ],
      "type": "VEC3"
    },
    {
      "bufferView": 2,
      "byteOffset": 182508,
      "componentType": 5126,
      "count": 497,
      "type": "VEC3"
    },
    {
      "bufferView": 1,
      "byteOffset": 58848,
      "componentType": 5126,
      "count": 497,
      "type": "VEC2"
    },
    {
      "bufferView": 0,
      "byteOffset": 155616,
      "componentType": 5125,
      "count": 2388,
      "type": "SCALAR"
    },
    {
      "bufferView": 2,
      "byteOffset": 188472,
      "componentType": 5126,
      "count": 497,
      "max": [
        0.9999997019767761,
        1.0,
        0.9999993443489075
      ],
      "min": [
        -0.9999990463256836,
        -1.0,
        -1.0
      ],
      "type": "VEC3"
    },
    {
      "bufferView": 2,
      "byteOffset": 194436,
      "componentType": 5126,
      "count": 497,
      "type": "VEC3"
    },
    {
      "bufferView": 1,
      "byteOffset": 62824,
      "componentType": 5126,
      "count": 497,
      "type": "VEC2"
    },
    {
      "bufferView": 0,
      "byteOffset": 165168,
      "componentType": 5125,
      "count": 2388,
      "type": "SCALAR"
    }
  ],
  "asset": {
    "generator": "fab-model-conversion",
    "version": "2.0"
  },
  "bufferViews": [
    {
      "buffer": 0,
      "byteLength": 174720,
      "target": 34963
    },
    {
      "buffer": 0,
      "byteLength": 66800,
      "byteOffset": 174720,
      "byteStride": 8,
      "target": 34962
    },
    {
      "buffer": 0,
      "byteLength": 200400,
      "byteOffset": 241520,
      "byteStride": 12,
      "target": 34962
    }
  ],
  "buffers": [
    {
      "byteLength": 441920,
      "uri": "scene.bin"
    }
  ],
  "materials": [
    {
      "alphaMode": "BLEND",
      "doubleSided": true,
      "name": "Material",
      "pbrMetallicRoughness": {
        "baseColorFactor": [
          0.597692,
          0.830156,
          1.0,
          0.229885
        ],
        "metallicFactor": 0.1,
        "roughnessFactor": 0.0
      }
    },
    {
      "doubleSided": true,
      "name": "Material.001",
      "pbrMetallicRoughness": {
        "baseColorFactor": [
          0.8,
          0.486398,
          0.14925,
          1.0
        ],
        "roughnessFactor": 0.5
      }
    },
    {
      "doubleSided": true,
      "name": "Material.002",
      "pbrMetallicRoughness": {
        "baseColorFactor": [
          0.0703562,
          0.0665957,
          0.0524968,
          1.0
        ],
        "metallicFactor": 0.559633
      }
    }
  ],
  "meshes": [
    {
      "name": "Object_0",
      "primitives": [
        {
          "attributes": {
            "NORMAL": 1,
            "POSITION": 0,
            "TEXCOORD_0": 2
          },
          "indices": 3,
          "material": 0,
          "mode": 4
        }
      ]
    },
    {
      "name": "Object_1",
      "primitives": [
        {
          "attributes": {
            "NORMAL": 5,
            "POSITION": 4,
            "TEXCOORD_0": 6
          },
          "indices": 7,
          "material": 1,
          "mode": 4
        }
      ]
    },
    {
      "name": "Object_2",
      "primitives": [
        {
          "attributes": {
            "NORMAL": 9,
            "POSITION": 8,
            "TEXCOORD_0": 10
          },
          "indices": 11,
          "material": 1,
          "mode": 4
        }
      ]
    },
    {
      "name": "Object_3",
      "primitives": [
        {
          "attributes": {
            "NORMAL": 13,
            "POSITION": 12,
            "TEXCOORD_0": 14
          },
          "indices": 15,
          "material": 1,
          "mode": 4
        }
      ]
    },
    {
      "name": "Object_4",
      "primitives": [
        {
          "attributes": {
            "NORMAL": 17,
            "POSITION": 16,
            "TEXCOORD_0": 18
          },
          "indices": 19,
          "material": 0,
          "mode": 4
        }
      ]
    },
    {
      "name": "Object_5",
      "primitives": [
        {
          "attributes": {
            "NORMAL": 21,
            "POSITION": 20,
            "TEXCOORD_0": 22
          },
          "indices": 23,
          "material": 1,
          "mode": 4
        }
      ]
    },
    {
      "name": "Object_6",
      "primitives": [
        {
          "attributes": {
            "NORMAL": 25,
            "POSITION": 24,
            "TEXCOORD_0": 26
          },
          "indices": 27,
          "material": 1,
          "mode": 4
        }
      ]
    },
    {
      "name": "Object_7",
      "primitives": [
        {
          "attributes": {
            "NORMAL": 29,
            "POSITION": 28,
            "TEXCOORD_0": 30
          },
          "indices": 31,
          "material": 2,
          "mode": 4
        }
      ]
    },
    {
      "name": "Object_8",
      "primitives": [
        {
          "attributes": {
            "NORMAL": 33,
            "POSITION": 32,
            "TEXCOORD_0": 34
          },
          "indices": 35,
          "material": 1,
          "mode": 4
        }
      ]
    },
    {
      "name": "Object_9",
      "primitives": [
        {
          "attributes": {
            "NORMAL": 37,
            "POSITION": 36,
            "TEXCOORD_0": 38
          },
          "indices": 39,
          "material": 1,
          "mode": 4
        }
      ]
    },
    {
      "name": "Object_10",
      "primitives": [
        {
          "attributes": {
            "NORMAL": 41,
            "POSITION": 40,
            "TEXCOORD_0": 42
          },
          "indices": 43,
          "material": 1,
          "mode": 4
        }
      ]
    },
    {
      "name": "Object_11",
      "primitives": [
        {
          "attributes": {
            "NORMAL": 45,
            "POSITION": 44,
            "TEXCOORD_0": 46
          },
          "indices": 47,
          "material": 1,
          "mode": 4
        }
      ]
    }
  ],
  "nodes": [
    {
      "children": [
        1
      ],
      "matrix": [
        1.0,
        0.0,
        0.0,
        0.0,
        0.0,
        2.220446049250313e-16,
        -1.0,
        0.0,
        0.0,
        1.0,
        2.220446049250313e-16,
        0.0,
        0.0,
        0.0,
        0.0,
        1.0
      ],
      "name": "FAB converted model"
    },
    {
      "children": [
        2
      ],
      "name": "root"
    },
    {
      "children": [
        3,
        5,
        7,
        9,
        11,
        13,
        15,
        17,
        19,
        21,
        23,
        25
      ],
      "matrix": [
        1.0,
        0.0,
        0.0,
        0.0,
        0.0,
        2.220446049250313e-16,
        1.0,
        0.0,
        0.0,
        -1.0,
        2.220446049250313e-16,
        0.0,
        0.0,
        0.0,
        0.0,
        1.0
      ],
      "name": "GLTF_SceneRootNode"
    },
    {
      "children": [
        4
      ],
      "matrix": [
        1.0,
        0.0,
        0.0,
        0.0,
        0.0,
        1.2392419576644897,
        0.0,
        0.0,
        0.0,
        0.0,
        1.0,
        0.0,
        0.0,
        3.782212734222412,
        0.0,
        1.0
      ],
      "name": "Cylinder_0"
    },
    {
      "mesh": 0,
      "name": "Object_4"
    },
    {
      "children": [
        6
      ],
      "matrix": [
        1.0,
        0.0,
        0.0,
        0.0,
        0.0,
        0.550029456615448,
        0.0,
        0.0,
        0.0,
        0.0,
        1.0,
        0.0,
        0.0,
        3.782212734222412,
        0.0,
        1.0
      ],
      "name": "Cylinder.001_1"
    },
    {
      "mesh": 1,
      "name": "Object_6"
    },
    {
      "children": [
        8
      ],
      "matrix": [
        1.0,
        0.0,
        0.0,
        0.0,
        0.0,
        1.2392419576644897,
        0.0,
        0.0,
        0.0,
        0.0,
        1.0,
        0.0,
        0.0,
        -0.65349942445755,
        0.0,
        1.0
      ],
      "name": "Circle_2"
    },
    {
      "mesh": 2,
      "name": "Object_8"
    },
    {
      "children": [
        10
      ],
      "matrix": [
        1.0,
        0.0,
        0.0,
        0.0,
        0.0,
        1.2392419576644897,
        0.0,
        0.0,
        0.0,
        0.0,
        1.0,
        0.0,
        0.0,
        3.782212734222412,
        0.0,
        1.0
      ],
      "name": "Cylinder.002_3"
    },
    {
      "mesh": 3,
      "name": "Object_10"
    },
    {
      "children": [
        12
      ],
      "matrix": [
        0.2733902335166931,
        0.0,
        0.0,
        0.0,
        0.0,
        0.3387966454029083,
        0.0,
        0.0,
        0.0,
        0.0,
        0.2733902335166931,
        0.0,
        0.0,
        4.138440132141113,
        0.0,
        1.0
      ],
      "name": "Sphere_4"
    },
    {
      "mesh": 4,
      "name": "Object_12"
    },
    {
      "children": [
        14
      ],
      "matrix": [
        0.2733902335166931,
        0.0,
        0.0,
        0.0,
        0.0,
        0.3387966454029083,
        0.0,
        0.0,
        0.0,
        0.0,
        0.2733902335166931,
        0.0,
        0.0,
        4.138440132141113,
        0.0,
        1.0
      ],
      "name": "Sphere.001_5"
    },
    {
      "mesh": 5,
      "name": "Object_14"
    },
    {
      "children": [
        16
      ],
      "matrix": [
        0.13180088996887207,
        0.0,
        0.0,
        0.0,
        0.0,
        0.6618281602859497,
        0.0,
        0.0,
        0.0,
        0.0,
        0.13180088996887207,
        0.0,
        0.0,
        2.5675928592681885,
        0.0,
        1.0
      ],
      "name": "Cylinder.003_6"
    },
    {
      "mesh": 6,
      "name": "Object_16"
    },
    {
      "children": [
        18
      ],
      "matrix": [
        0.13172079622745514,
        0.0,
        0.0,
        0.0,
        0.0,
        1.6523698568344116,
        0.0,
        0.0,
        0.0,
        0.0,
        1.0,
        0.0,
        -2.035902976989746,
        3.235138177871704,
        0.0,
        1.0
      ],
      "name": "Cube_7"
    },
    {
      "mesh": 7,
      "name": "Object_18"
    },
    {
      "children": [
        20
      ],
      "matrix": [
        0.13172079622745514,
        0.0,
        0.0,
        0.0,
        0.0,
        1.6523698568344116,
        0.0,
        0.0,
        0.0,
        0.0,
        1.0,
        0.0,
        -2.035902976989746,
        2.532613515853882,
        0.0,
        1.0
      ],
      "name": "Cube.001_8"
    },
    {
      "mesh": 8,
      "name": "Object_20"
    },
    {
      "children": [
        22
      ],
      "matrix": [
        0.13172079622745514,
        0.0,
        0.0,
        0.0,
        0.0,
        1.6523698568344116,
        0.0,
        0.0,
        0.0,
        0.0,
        1.0,
        0.0,
        -2.035902976989746,
        3.4325308799743652,
        0.0,
        1.0
      ],
      "name": "Cube.002_9"
    },
    {
      "mesh": 9,
      "name": "Object_22"
    },
    {
      "children": [
        24
      ],
      "matrix": [
        0.12307384610176086,
        0.0,
        0.0,
        0.0,
        0.0,
        0.12307384610176086,
        0.0,
        0.0,
        0.0,
        0.0,
        0.12307384610176086,
        0.0,
        -1.73322331905365,
        3.7201101779937744,
        0.0,
        1.0
      ],
      "name": "Sphere.002_10"
    },
    {
      "mesh": 10,
      "name": "Object_24"
    },
    {
      "children": [
        26
      ],
      "matrix": [
        0.12307384610176086,
        0.0,
        0.0,
        0.0,
        0.0,
        0.12307384610176086,
        0.0,
        0.0,
        0.0,
        0.0,
        0.12307384610176086,
        0.0,
        -1.73322331905365,
        3.158616065979004,
        0.0,
        1.0
      ],
      "name": "Sphere.003_11"
    },
    {
      "mesh": 11,
      "name": "Object_26"
    }
  ],
  "scene": 0,
  "scenes": [
    {
      "name": "FAB converted",
      "nodes": [
        0
      ]
    }
  ]
}
